# WaveFront *.obj file (generated by Autodesk ATF)

mtllib Body1.mtl

g Body1

v -30.000000 25.000000 50.000000
v -30.000000 25.000000 -35.000000
v -30.000000 15.000000 -35.000000
v -30.000000 15.000000 50.000000
v 50.000000 25.000000 -35.000000
v 50.000000 15.000000 -35.000000
v 50.000000 25.000000 -45.000000
v -40.000000 25.000000 -45.000000
v -40.000000 15.000000 -45.000000
v 50.000000 15.000000 -45.000000
v -40.000000 25.000000 50.000000
v -40.000000 15.000000 50.000000
v 50.000000 25.000000 -50.000000
v -50.000000 25.000000 -50.000000
v -50.000000 25.000000 50.000000
v 50.000000 25.000000 50.000000
v -50.000000 0.000000 50.000000
v 50.000000 0.000000 50.000000
v -50.000000 0.000000 -50.000000
v 50.000000 0.000000 -50.000000
vt -8.500000 0.000000 0.000000
vt -0.000000 0.000000 0.000000
vt -8.500000 1.000000 0.000000
vt -0.000000 1.000000 0.000000
vt -8.000000 0.000000 0.000000
vt 0.000000 0.000000 0.000000
vt -8.000000 1.000000 0.000000
vt -0.000000 1.000000 0.000000
vt -9.000000 0.000000 0.000000
vt -0.000000 0.000000 0.000000
vt -9.000000 1.000000 0.000000
vt -0.000000 1.000000 0.000000
vt -9.500000 0.000000 0.000000
vt -0.000000 0.000000 0.000000
vt -9.500000 1.000000 0.000000
vt -0.000000 1.000000 0.000000
vt 4.750000 -3.500000 0.000000
vt -3.750000 -3.500000 0.000000
vt 4.750000 -4.500000 0.000000
vt -4.750000 -4.500000 0.000000
vt -4.750000 4.500000 0.000000
vt -3.750000 4.500000 0.000000
vt -4.500000 5.000000 0.000000
vt -5.000000 5.000000 0.000000
vt -4.500000 -4.000000 0.000000
vt -5.000000 -5.000000 0.000000
vt 5.000000 -5.000000 0.000000
vt 5.000000 -4.000000 0.000000
vt -3.500000 -3.000000 0.000000
vt 5.000000 -3.000000 0.000000
vt -3.500000 5.000000 0.000000
vt 5.000000 5.000000 0.000000
vt 2.000000 2.500000 0.000000
vt 2.000000 1.500000 0.000000
vt 10.000000 2.500000 0.000000
vt 10.000000 0.000000 0.000000
vt 0.000000 0.000000 0.000000
vt 1.000000 1.500000 0.000000
vt 0.000000 2.500000 0.000000
vt 1.000000 2.500000 0.000000
vt 0.000000 0.000000 0.000000
vt 10.000000 0.000000 0.000000
vt 0.000000 2.500000 0.000000
vt 10.000000 2.500000 0.000000
vt 0.000000 0.000000 0.000000
vt 10.000000 0.000000 0.000000
vt 0.000000 2.500000 0.000000
vt 10.000000 2.500000 0.000000
vt 8.500000 2.500000 0.000000
vt 0.000000 2.500000 0.000000
vt 8.500000 1.500000 0.000000
vt 0.000000 0.000000 0.000000
vt 10.000000 0.000000 0.000000
vt 9.500000 1.500000 0.000000
vt 10.000000 2.500000 0.000000
vt 9.500000 2.500000 0.000000
vt -5.000000 -5.000000 0.000000
vt 5.000000 -5.000000 0.000000
vt -5.000000 5.000000 0.000000
vt 5.000000 5.000000 0.000000
vn -0.100000 0.000000 0.000000
vn -0.100000 0.000000 0.000000
vn -0.100000 0.000000 0.000000
vn -0.100000 0.000000 0.000000
vn 0.000000 0.000000 -0.100000
vn 0.000000 0.000000 -0.100000
vn 0.000000 0.000000 -0.100000
vn 0.000000 0.000000 -0.100000
vn 0.000000 0.000000 0.100000
vn 0.000000 0.000000 0.100000
vn 0.000000 0.000000 0.100000
vn 0.000000 0.000000 0.100000
vn 0.100000 0.000000 0.000000
vn 0.100000 0.000000 0.000000
vn 0.100000 0.000000 0.000000
vn 0.100000 0.000000 0.000000
vn -0.000000 0.100000 -0.000000
vn -0.000000 0.100000 -0.000000
vn -0.000000 0.100000 -0.000000
vn -0.000000 0.100000 -0.000000
vn -0.000000 0.100000 -0.000000
vn -0.000000 0.100000 -0.000000
vn 0.000000 0.100000 0.000000
vn 0.000000 0.100000 0.000000
vn 0.000000 0.100000 0.000000
vn 0.000000 0.100000 0.000000
vn 0.000000 0.100000 0.000000
vn 0.000000 0.100000 0.000000
vn 0.000000 0.100000 0.000000
vn 0.000000 0.100000 0.000000
vn 0.000000 0.100000 0.000000
vn 0.000000 0.100000 0.000000
vn 0.000000 0.000000 0.100000
vn 0.000000 0.000000 0.100000
vn 0.000000 0.000000 0.100000
vn 0.000000 0.000000 0.100000
vn 0.000000 0.000000 0.100000
vn 0.000000 0.000000 0.100000
vn 0.000000 0.000000 0.100000
vn 0.000000 0.000000 0.100000
vn -0.100000 0.000000 0.000000
vn -0.100000 0.000000 0.000000
vn -0.100000 0.000000 0.000000
vn -0.100000 0.000000 0.000000
vn 0.000000 0.000000 -0.100000
vn 0.000000 0.000000 -0.100000
vn 0.000000 0.000000 -0.100000
vn 0.000000 0.000000 -0.100000
vn 0.100000 -0.000000 0.000000
vn 0.100000 -0.000000 0.000000
vn 0.100000 -0.000000 0.000000
vn 0.100000 -0.000000 0.000000
vn 0.100000 -0.000000 0.000000
vn 0.100000 -0.000000 0.000000
vn 0.100000 -0.000000 0.000000
vn 0.100000 -0.000000 0.000000
vn 0.000000 -0.100000 0.000000
vn 0.000000 -0.100000 0.000000
vn 0.000000 -0.100000 0.000000
vn 0.000000 -0.100000 0.000000
usemtl Steel_-_Satin
f 1/1/1 2/2/2 4/3/3
f 4/3/3 2/2/2 3/4/4
f 2/5/5 5/6/6 3/7/7
f 3/7/7 5/6/6 6/8/8
f 7/9/9 8/10/10 10/11/11
f 10/11/11 8/10/10 9/12/12
f 8/13/13 11/14/14 9/15/15
f 9/15/15 11/14/14 12/16/16
f 4/17/17 3/18/18 12/19/19
f 12/19/19 3/18/18 9/20/20
f 9/20/20 3/18/18 10/21/21
f 10/21/21 3/18/18 6/22/22
f 7/23/23 13/24/24 8/25/25
f 8/25/25 13/24/24 14/26/26
f 8/25/25 14/26/26 15/27/27
f 15/27/27 11/28/28 8/25/25
f 2/29/29 1/30/30 5/31/31
f 5/31/31 1/30/30 16/32/32
f 1/33/33 4/34/34 16/35/35
f 16/35/35 4/34/34 18/36/36
f 18/36/36 4/34/34 17/37/37
f 17/37/37 4/34/34 12/38/38
f 17/37/37 12/38/38 15/39/39
f 15/39/39 12/38/38 11/40/40
f 19/41/41 17/42/42 14/43/43
f 14/43/43 17/42/42 15/44/44
f 20/45/45 19/46/46 13/47/47
f 13/47/47 19/46/46 14/48/48
f 5/49/49 16/50/50 6/51/51
f 6/51/51 16/50/50 18/52/52
f 6/51/51 18/52/52 20/53/53
f 6/51/51 20/53/53 10/54/54
f 10/54/54 20/53/53 13/55/55
f 10/54/54 13/55/55 7/56/56
f 18/57/57 17/58/58 20/59/59
f 20/59/59 17/58/58 19/60/60
# 20 vertices
# 60 texture params
# 60 normals
# 36 facets

# 1 groups
